<svg width="142" height="24" viewBox="0 0 142 24" fill="none" xmlns="http://www.w3.org/2000/svg">
<path d="M53.6965 19.6873C52.4925 20.88 51.6242 21.4863 50.2926 21.4863C49.299 21.4863 46.4993 20.0524 46.4993 15.4188H54.8423C54.8423 15.4188 54.2873 8.3688 48.7753 8.3688C46.2979 8.3688 42.2518 11.0197 42.2518 15.8193C42.2518 15.8193 41.6968 23.8186 48.547 23.8186C49.6996 23.8186 52.6357 23.4822 54.5379 19.6076C54.6431 19.3952 54.7505 18.6406 53.6942 19.685L53.6965 19.6873ZM48.744 9.23843H48.8424C51.0333 9.23843 50.7693 14.5757 50.7693 14.5757H46.553C46.553 14.5757 46.553 9.23843 48.744 9.23843Z" fill="#00843D"/>
<path d="M56.514 1.82113H62.9368C62.9368 1.82113 62.9748 21.6876 62.9748 21.8956C62.9748 22.6745 64.8457 22.8073 64.8457 22.8073V23.4844H56.514V22.8073C56.514 22.8073 58.4364 22.6967 58.4364 21.8956V3.34575C58.4028 2.99613 58.2596 2.40974 57.3734 2.40974C57.0444 2.40974 56.514 2.4208 56.514 2.4208V1.82113Z" fill="#00843D"/>
<path d="M72.0809 3.41656C72.1973 3.03596 72.7568 2.75715 72.7568 3.90559V8.80472H76.0845V10.1899H72.8015V20.8645C72.8015 21.5195 73.2357 22.0793 73.9294 22.0793C75.1469 22.0793 75.5251 20.6697 75.8316 20.6697C76.1047 20.6697 76.3106 20.8844 76.0845 21.4863C75.6123 22.7365 73.8757 23.9978 71.8549 23.9978C71.0246 23.9978 68.2474 23.3118 68.2474 20.5525V10.1899H66.2332V9.7009C67.5312 9.13885 71.2081 6.25337 72.0809 3.41435V3.41656Z" fill="#00843D"/>
<path d="M78.8439 8.62106H85.2398V12C85.2398 12 87.2383 8.44625 89.7157 8.44625C91.9155 8.44625 91.9916 10.2961 91.9916 11.0463C91.9916 11.7964 91.3851 12.8209 90.1453 12.8209C88.2498 12.8209 88.7735 11.272 87.6232 11.272C86.9407 11.272 85.2398 13.1219 85.2398 14.5713V22.0218C85.2398 22.6723 87.1107 22.8958 87.1107 22.8958V23.4844H78.8439V22.8958C78.8439 22.8958 80.6141 22.659 80.6141 22.0218C80.6141 22.0218 80.4619 10.5971 80.4619 10.2718C80.4619 9.44643 79.4257 9.29817 78.8439 9.29817V8.62106Z" fill="#00843D"/>
<path d="M122.579 22.0218V12.3563C122.579 10.7232 121.306 8.44846 118.609 8.44846C116.132 8.44846 114.134 10.8892 114.134 10.8892V8.62327H107.738V9.29817C108.319 9.29817 109.356 9.44864 109.356 10.2718C109.356 10.5971 109.508 22.0218 109.508 22.0218C109.508 22.659 108.024 22.8958 108.024 22.8958V23.4844H115.718V22.8958C115.718 22.8958 114.134 22.6701 114.134 22.0218V13.8942C114.134 11.1547 115.832 10.2873 116.515 10.2873C117.967 10.2873 118.157 10.4533 118.157 15.91C118.198 18.9238 118.238 22.0218 118.238 22.0218C118.238 22.659 116.754 22.8958 116.754 22.8958V23.4844H124.162V22.8958C124.162 22.8958 122.577 22.6701 122.577 22.0218H122.579Z" fill="#00843D"/>
<path d="M140.207 21.7275V1.92292H133.212V2.42301C133.212 2.42301 135.774 1.72377 135.774 4.24857V10.8493C135.774 10.8493 133.914 8.44846 132.099 8.44846C130.759 8.44846 125.829 9.32473 125.829 16.9899C125.829 18.2888 126.764 24 131.618 24C132.272 24 134.12 23.7721 135.233 21.6212C135.573 20.964 135.772 21.3535 135.772 21.8204V23.8363H142V22.9932C142 22.9932 140.205 23.2941 140.205 21.7275H140.207ZM135.741 19.9882C135.741 19.9882 134.588 22.1877 132.842 22.1877C132.303 22.1877 130.246 21.6301 130.246 15.8635C130.246 11.064 131.166 9.28932 132.775 9.28932C134.384 9.28932 135.741 12.2943 135.741 12.9626V19.9904V19.9882Z" fill="#00843D"/>
<path d="M24.0352 0L39.2888 23.4844V0H24.0352Z" fill="#00843D"/>
<path d="M3.85592 0.227918C3.70374 -0.0022128 3.62318 -0.0685967 3.3882 0.0818735C3.25169 0.170385 3.07937 0.314217 2.92943 0.462475H0V1.46266H3.45981L18.0913 23.7566C18.1875 23.9049 18.3509 23.9845 18.5165 23.9845C18.6105 23.9845 18.7067 23.958 18.7917 23.9049C19.0267 23.7544 19.0939 23.4446 18.9417 23.2145L3.85592 0.227918Z" fill="#00843D"/>
<path d="M21.8577 0.227918C21.7055 -0.0022128 21.6249 -0.0685967 21.39 0.0818735C21.3407 0.112853 21.287 0.152683 21.2311 0.196939V0H5.97746L21.2333 23.4844V1.46266H21.4638L36.0953 23.7566C36.1915 23.9049 36.3549 23.9845 36.5205 23.9845C36.6145 23.9845 36.7107 23.958 36.7957 23.9049C37.0307 23.7544 37.0979 23.4446 36.9457 23.2145L21.8577 0.227918Z" fill="#00843D"/>
<path d="M105.095 19.6873C103.891 20.88 103.022 21.4863 101.691 21.4863C100.697 21.4863 97.8975 20.0524 97.8975 15.4188H106.24C106.24 15.4188 105.685 8.3688 100.173 8.3688C97.6961 8.3688 93.6499 11.0197 93.6499 15.8193C93.6499 15.8193 93.0927 23.8186 99.9452 23.8186C101.098 23.8186 104.034 23.4822 105.936 19.6076C106.041 19.3952 106.149 18.6406 105.095 19.685V19.6873ZM100.142 9.23843H100.241C102.431 9.23843 102.167 14.5757 102.167 14.5757H97.9512C97.9512 14.5757 97.9512 9.23843 100.142 9.23843Z" fill="#00843D"/>
</svg>
