<svg width="142" height="24" viewBox="0 0 142 24" fill="none" xmlns="http://www.w3.org/2000/svg">
<g clip-path="url(#clip0_1756_1111)">
<path d="M53.6957 19.3669C52.4917 20.5099 51.6234 21.0909 50.2918 21.0909C49.2982 21.0909 46.4986 19.7168 46.4986 15.2762H54.8414C54.8414 15.2762 54.2864 8.52002 48.7746 8.52002C46.2972 8.52002 42.2511 11.0605 42.2511 15.6601C42.2511 15.6601 41.6962 23.326 48.5463 23.326C49.6988 23.326 52.6349 23.0037 54.5371 19.2905C54.6423 19.087 54.7497 18.3638 53.6934 19.3648L53.6957 19.3669ZM48.7432 9.35341H48.8417C51.0326 9.35341 50.7685 14.4683 50.7685 14.4683H46.5523C46.5523 14.4683 46.5523 9.35341 48.7432 9.35341Z" fill="white"/>
<path d="M56.5131 2.24512H62.9358C62.9358 2.24512 62.9738 21.2838 62.9738 21.4832C62.9738 22.2296 64.8447 22.3569 64.8447 22.3569V23.0058H56.5131V22.3569C56.5131 22.3569 58.4354 22.2508 58.4354 21.4832V3.70621C58.4018 3.37115 58.2586 2.8092 57.3724 2.8092C57.0434 2.8092 56.5131 2.8198 56.5131 2.8198V2.24512Z" fill="white"/>
<path d="M72.0798 3.77412C72.1961 3.40938 72.7556 3.14219 72.7556 4.24278V8.93778H76.0833V10.2653H72.8003V20.495C72.8003 21.1227 73.2345 21.6592 73.9282 21.6592C75.1456 21.6592 75.5238 20.3084 75.8304 20.3084C76.1035 20.3084 76.3093 20.5141 76.0833 21.0909C75.6111 22.2891 73.8745 23.4978 71.8537 23.4978C71.0235 23.4978 68.2463 22.8404 68.2463 20.196V10.2653H66.2322V9.79662C67.5301 9.25799 71.207 6.49273 72.0798 3.772V3.77412Z" fill="white"/>
<path d="M78.8427 8.76177H85.2385V11.9999C85.2385 11.9999 87.2369 8.59424 89.7143 8.59424C91.9141 8.59424 91.9902 10.3671 91.9902 11.0859C91.9902 11.8048 91.3837 12.7867 90.1439 12.7867C88.2484 12.7867 88.7721 11.3022 87.6218 11.3022C86.9393 11.3022 85.2385 13.0751 85.2385 14.4641V21.6041C85.2385 22.2276 87.1094 22.4417 87.1094 22.4417V23.0058H78.8427V22.4417C78.8427 22.4417 80.6128 22.2148 80.6128 21.6041C80.6128 21.6041 80.4606 10.6555 80.4606 10.3437C80.4606 9.55275 79.4245 9.41067 78.8427 9.41067V8.76389V8.76177Z" fill="white"/>
<path d="M122.577 21.6042V12.3414C122.577 10.7764 121.304 8.59644 118.607 8.59644C116.13 8.59644 114.132 10.9355 114.132 10.9355V8.76396H107.736V9.41075C108.318 9.41075 109.354 9.55495 109.354 10.3438C109.354 10.6555 109.506 21.6042 109.506 21.6042C109.506 22.2149 108.022 22.4418 108.022 22.4418V23.0059H115.716V22.4418C115.716 22.4418 114.132 22.2255 114.132 21.6042V13.8152C114.132 11.1899 115.83 10.3587 116.513 10.3587C117.965 10.3587 118.155 10.5177 118.155 15.7471C118.196 18.6353 118.236 21.6042 118.236 21.6042C118.236 22.2149 116.752 22.4418 116.752 22.4418V23.0059H124.16V22.4418C124.16 22.4418 122.575 22.2255 122.575 21.6042H122.577Z" fill="white"/>
<path d="M140.205 21.3221V2.34277H133.21V2.82203C133.21 2.82203 135.772 2.15192 135.772 4.57152V10.8973C135.772 10.8973 133.912 8.59642 132.097 8.59642C130.757 8.59642 125.827 9.43617 125.827 16.7819C125.827 18.0267 126.762 23.5 131.616 23.5C132.27 23.5 134.118 23.2816 135.23 21.2203C135.571 20.5905 135.77 20.9637 135.77 21.4112V23.3431H141.998V22.5351C141.998 22.5351 140.203 22.8235 140.203 21.3221H140.205ZM135.738 19.6553C135.738 19.6553 134.586 21.7632 132.84 21.7632C132.301 21.7632 130.244 21.2288 130.244 15.7025C130.244 11.103 131.164 9.40224 132.773 9.40224C134.382 9.40224 135.738 12.282 135.738 12.9224V19.6575V19.6553Z" fill="white"/>
<path d="M24.0348 0.5L39.2882 23.0059V0.5H24.0348Z" fill="white"/>
<path d="M3.85586 0.718741C3.70369 0.498199 3.62312 0.434581 3.38815 0.578782C3.25163 0.663605 3.07932 0.801444 2.92938 0.943524H0V1.90203H3.45976L18.091 23.2671C18.1872 23.4091 18.3506 23.4855 18.5162 23.4855C18.6102 23.4855 18.7064 23.46 18.7915 23.4091C19.0264 23.2649 19.0936 22.9681 18.9414 22.7475L3.85586 0.718741Z" fill="white"/>
<path d="M21.8574 0.718422C21.7052 0.497879 21.6247 0.434261 21.3897 0.578462C21.3404 0.60815 21.2867 0.646321 21.2308 0.688733V0.5H5.97742L21.233 23.0059V1.90171H21.4635L36.0948 23.2667C36.191 23.4088 36.3544 23.4852 36.52 23.4852C36.614 23.4852 36.7102 23.4597 36.7952 23.4088C37.0302 23.2646 37.0973 22.9677 36.9452 22.7472L21.8574 0.718422Z" fill="white"/>
<path d="M105.093 19.3669C103.889 20.5099 103.021 21.0909 101.689 21.0909C100.696 21.0909 97.896 19.7168 97.896 15.2762H106.239C106.239 15.2762 105.684 8.52002 100.172 8.52002C97.6946 8.52002 93.6485 11.0605 93.6485 15.6601C93.6485 15.6601 93.0912 23.326 99.9436 23.326C101.096 23.326 104.032 23.0037 105.934 19.2905C106.04 19.087 106.147 18.3638 105.093 19.3648V19.3669ZM100.141 9.35341H100.239C102.43 9.35341 102.166 14.4683 102.166 14.4683H97.9497C97.9497 14.4683 97.9497 9.35341 100.141 9.35341Z" fill="white"/>
</g>
<defs>
<clipPath id="clip0_1756_1111">
<rect width="142" height="23" fill="white" transform="translate(0 0.5)"/>
</clipPath>
</defs>
</svg>
